<?xml version="1.0" encoding="UTF-8" standalone="no"?>
<!-- Created with Inkscape (http://www.inkscape.org/) -->

<svg
   xmlns:dc="http://purl.org/dc/elements/1.1/"
   xmlns:cc="http://creativecommons.org/ns#"
   xmlns:rdf="http://www.w3.org/1999/02/22-rdf-syntax-ns#"
   xmlns:svg="http://www.w3.org/2000/svg"
   xmlns="http://www.w3.org/2000/svg"
   xmlns:sodipodi="http://sodipodi.sourceforge.net/DTD/sodipodi-0.dtd"
   xmlns:inkscape="http://www.inkscape.org/namespaces/inkscape"
   width="300"
   height="100"
   viewBox="0 0 3000.0002 673.18878"
   id="svg2"
   version="1.1"
   inkscape:version="0.91 r13725"
   sodipodi:docname="LOGO.svg">
  <title
     id="title4730">Unilever</title>
  <defs
     id="defs4">
    <clipPath
       id="clipPath4354"
       clipPathUnits="userSpaceOnUse">
      <path
         inkscape:connector-curvature="0"
         id="path4356"
         d="m 715.165,40.441 94.665,0 0,104.727 -94.665,0 0,-104.727 z" />
    </clipPath>
  </defs>
  <sodipodi:namedview
     id="base"
     pagecolor="#ffffff"
     bordercolor="#666666"
     borderopacity="1.0"
     inkscape:pageopacity="0.0"
     inkscape:pageshadow="2"
     inkscape:zoom="0.16734884"
     inkscape:cx="1500.0001"
     inkscape:cy="701.21163"
     inkscape:document-units="px"
     inkscape:current-layer="layer1"
     showgrid="false"
     inkscape:showpageshadow="false"
     fit-margin-top="20"
     fit-margin-right="20"
     fit-margin-bottom="20"
     fit-margin-left="20"
     units="px"
     inkscape:window-width="1366"
     inkscape:window-height="715"
     inkscape:window-x="-8"
     inkscape:window-y="-8"
     inkscape:window-maximized="1" />
  <metadata
     id="metadata7">
    <rdf:RDF>
      <cc:Work
         rdf:about="">
        <dc:format>image/svg+xml</dc:format>
        <dc:type
           rdf:resource="http://purl.org/dc/dcmitype/StillImage" />
        <dc:title>Unilever</dc:title>
      </cc:Work>
    </rdf:RDF>
  </metadata>
  <g
     inkscape:label="Capa 1"
     inkscape:groupmode="layer"
     id="layer1"
     transform="translate(212.90151,-200.668)">
    <path
       style="fill:#003ca6;fill-opacity:1;fill-rule:nonzero;stroke:none"
       d="m 1404.1875,2661.4082 c -1.5692,0 -3.1504,0.043 -4.7402,0.1387 -69.447,4.2525 -132.8908,159.1241 -122.7598,323.7832 2.0011,32.1751 16.0411,120.6032 35.7402,164.3476 -34.4577,55.1574 -78.2331,63.4121 -103.6543,63.4121 -35.7397,0 -90.0527,-20.3555 -90.0527,-103.498 25.5775,-69.7284 8.5678,-149.4629 -27.1406,-149.4629 -50.9674,0 -67.915,89.8029 -69.6348,152.7773 -16.9474,37.4283 -35.67837,67.9454 -61.2246,67.9454 -76.32604,0 -83.0784,-237.8282 -139.20508,-237.8282 -45.80813,0 -124.60514,151.2149 -148.46289,151.2149 -13.50792,0 -25.51452,-42.8387 -34.05078,-84.8321 -2.37639,-11.7569 -4.69084,-25.9527 -12.32031,-26.6718 -15.10262,-1.4071 -33.9881,11.6007 -40.96094,29.7676 -7.06664,18.0731 -19.66773,74.7001 -33.39453,126.3554 -8.22358,29.7362 -28.42437,92.6484 -30.83203,116.1309 -1.7823,16.9474 5.34744,29.6435 22.35742,31.4258 42.24353,4.3775 197.83438,-187.0489 247.08203,-187.0489 62.91191,0 78.10849,188.4864 149.52539,188.4864 42.43114,0 81.48502,-108.627 107.00002,-108.627 28.7981,0 42.4014,108.627 123.918,108.627 101.9973,0 135.8609,-66.2578 166.4726,-66.2578 25.4525,0 52.6545,64.539 115.4414,64.539 39.0541,0 73.1382,-11.8512 113.8496,-39.0859 23.7014,27.2347 52.4996,40.8047 79.8282,40.8047 167.9736,0 215.5326,-151.1817 249.6464,-151.1817 30.5179,0 23.7636,149.4629 110.502,149.4629 115.3802,0 193.582,-202.1511 193.582,-310.8398 0,-28.8294 -8.5681,-52.5 -32.332,-52.5 -39.148,0 -68.0391,45.8392 -68.0391,100.1211 0,49.2476 11.9121,52.6577 11.9121,86.6777 0,45.7456 -23.7642,105.2168 -52.7187,105.2168 -67.7273,0 -84.7671,-268.3438 -125.5723,-268.3438 -23.7014,0 -35.6776,28.8279 -42.4316,49.2461 -37.522,107.0629 -88.24,224.2891 -185.1094,224.2891 -18.761,0 -40.741,-8.5985 -52.6543,-20.418 67.8524,-42.4311 113.7539,-86.6771 113.7539,-140.959 0,-45.9332 -30.5492,-115.5996 -83.2363,-115.5996 -66.1951,0 -142.6777,100.2467 -142.6777,219.0977 -1e-4,22.1693 3.4707,37.4599 6.8789,49.2793 -5.0967,6.879 -25.578,15.3535 -42.5567,15.3535 -45.8394,0 -94.3989,-48.7488 -100.1836,-77.3906 34.2076,-73.8559 102.5288,-159.4988 90.0215,-364.6817 -4.5437,-75.5765 -42.9205,-123.1592 -91.5664,-123.2734 z m -292.252,23.5586 c -32.2376,0 -62.5995,33.8325 -59.3789,76.3262 2.0638,28.0164 18.6041,51.0605 51.0293,51.0605 37.2406,0 64.3829,-42.4614 60.9746,-81.5781 -2.3763,-27.2035 -23.733,-45.8086 -52.625,-45.8086 z m -669.79488,33.3086 c -4.5453,-0.056 -9.62358,0.7061 -15.35742,2.3066 -27.266,8.5676 -56.90928,45.9335 -48.40429,102.6856 3.87728,25.64 17.97956,60.3151 22.85742,75.7617 8.56753,27.1096 18.73058,69.6045 5.22265,157.8437 -17.07251,110.4711 -57.78408,186.921 -149.49414,185.1387 -61.12961,0 -117.2871,-47.5904 -123.94726,-169.8496 -6.87904,-115.5053 1.7508,-164.6902 20.35547,-266.5625 8.47372,-46.027 11.81878,-85.0177 -25.51563,-78.2012 -47.46535,10.0997 -61.12969,28.891 -76.41992,81.5782 -28.86068,98.4953 -33.800718,168.0997 -30.580078,237.7343 6.87904,147.7117 73.04313,244.5802 222.568358,247.8321 173.19537,3.502 242.86131,-164.6585 249.55274,-303.959 5.12801,-101.9036 3.43867,-173.1654 -11.88282,-227.4785 -9.57789,-29.0131 -19.25874,-44.5881 -38.95508,-44.8301 z m 961.03318,44.9883 c 23.8728,-0.2623 34.7327,21.2757 37.5801,67.2578 6.5038,105.1867 -38.3679,235.5442 -57.0977,236.6699 -10.1309,0.6566 -20.9798,-10.5685 -25.3886,-83.5176 -6.9103,-111.8468 8.7242,-218.2527 42.5566,-220.3164 0.7974,-0.054 1.5795,-0.085 2.3496,-0.094 z m 1486.9297,150.9941 c -159.6561,0 -193.5201,239.4531 -219.0664,239.4531 -42.4624,0 -28.8922,-191.9257 -59.5039,-191.9257 -27.2035,0 -40.5232,32.3934 -44.1504,47.5586 -21.0435,87.3012 -84.862,215.7519 -180.0742,215.7519 -22.0441,0 -61.1289,-8.5358 -61.1289,-30.6738 0,-23.764 149.5566,-27.0778 149.5566,-140.9258 0,-42.3999 -39.0247,-101.9356 -96.8398,-101.9356 -76.4199,0 -150.9629,83.2995 -150.9629,198.7735 0,103.5295 64.3196,137.5176 128.8262,137.5176 112.1595,0 180.0748,-91.7716 215.6894,-168.1914 17.0725,50.9986 27.1098,168.1914 69.6973,168.1914 16.9787,0 28.8903,-8.5044 49.3398,-54.3125 50.8111,-113.8793 100.091,-244.6133 168.0996,-244.6133 25.3899,0 10.1615,45.9336 71.2911,45.9336 28.7981,0 49.123,-23.7633 49.123,-51.0606 0,-39.0854 -35.6146,-69.541 -89.8965,-69.541 z m -533.3437,105.375 c 35.7084,0 45.9639,42.2428 37.459,67.8203 -8.5676,25.4525 -39.0541,54.4072 -86.6133,62.8809 -10.2247,-25.515 -15.3523,-130.7012 49.1543,-130.7012 z m -697.8477,5.002 c 18.5734,0 33.8945,23.7643 33.8945,52.5625 0,33.9887 -13.6645,74.8562 -62.8183,90.1465 -6.9103,-8.6301 -22.0742,-28.8305 -22.0742,-71.4493 0,-54.3756 35.5827,-71.2597 50.998,-71.2597 z"
       transform="translate(-212.90136,-2440.74)"
       id="path4456"
       inkscape:connector-curvature="0" />
  </g>
</svg>
