<?xml version="1.0" standalone="no"?>
<!DOCTYPE svg PUBLIC "-//W3C//DTD SVG 20010904//EN"
 "http://www.w3.org/TR/2001/REC-SVG-20010904/DTD/svg10.dtd">
<svg version="1.0" xmlns="http://www.w3.org/2000/svg"
 width="400.000000pt" height="337.000000pt" viewBox="0 0 400.000000 337.000000"
 preserveAspectRatio="xMidYMid meet">
<metadata>
Created by potrace 1.15, written by Peter Selinger 2001-2017
</metadata>
<g transform="translate(0.000000,337.000000) scale(0.100000,-0.100000)"
fill="#000000" stroke="none">
<path d="M383 3364 c-7 -3 -13 -14 -13 -24 0 -18 8 -22 107 -49 23 -6 45 -15
47 -20 3 -5 -30 -32 -73 -60 -76 -49 -100 -76 -84 -92 5 -5 53 -11 108 -14 55
-4 106 -8 113 -11 19 -6 2 -32 -79 -122 -120 -132 -149 -202 -76 -188 17 3 81
31 140 62 60 30 115 53 122 50 10 -3 12 -25 7 -91 -4 -68 -2 -89 9 -96 23 -15
35 -11 88 31 59 47 64 43 75 -60 9 -77 29 -130 50 -130 20 0 39 38 66 135 12
44 27 89 33 100 9 18 12 17 43 -19 43 -50 65 -45 81 16 12 51 20 68 31 68 4 0
41 -27 82 -61 87 -71 123 -91 144 -83 26 10 19 62 -20 154 -50 119 -57 140
-50 147 3 3 61 -11 128 -31 137 -41 150 -42 168 -21 22 27 1 63 -95 165 -52
55 -95 107 -95 114 0 20 16 30 103 66 57 24 77 37 75 49 -4 23 -59 25 -163 7
-105 -18 -159 -42 -163 -74 -3 -18 14 -41 67 -97 101 -104 95 -125 -26 -84
-127 42 -146 15 -88 -126 20 -48 34 -89 33 -91 -2 -1 -34 24 -71 57 -38 32
-77 59 -88 59 -16 0 -19 -7 -19 -52 0 -79 -12 -88 -47 -36 -16 23 -35 43 -43
43 -15 0 -31 -37 -50 -113 -6 -23 -15 -40 -19 -38 -5 3 -12 42 -15 86 -4 44
-12 82 -17 86 -10 6 -55 -37 -97 -91 l-23 -30 7 60 c12 104 11 110 -13 113
-12 2 -43 -8 -70 -21 -96 -49 -103 -44 -37 24 68 71 91 106 77 120 -5 5 -34
12 -64 15 -30 3 -69 10 -87 16 -39 12 -34 22 37 71 73 49 81 78 29 97 -35 13
-264 24 -285 14z"/>
<path d="M2380 3335 c0 -20 -6 -38 -13 -41 -8 -3 -39 9 -71 26 -86 45 -94 34
-41 -54 19 -32 35 -62 35 -66 0 -5 -16 -18 -35 -30 -19 -12 -35 -26 -35 -31 0
-5 18 -20 40 -34 22 -14 40 -29 40 -34 0 -6 -18 -22 -40 -38 -47 -33 -48 -55
-2 -64 18 -4 35 -9 38 -12 3 -3 -8 -32 -25 -66 -17 -33 -31 -65 -31 -71 0 -21
28 -9 73 30 43 39 46 40 56 21 6 -11 11 -29 11 -40 0 -33 22 -36 47 -6 l25 28
60 -29 c52 -25 73 -29 142 -29 71 0 88 4 135 30 99 55 144 139 143 267 -1 122
-65 217 -171 253 -83 28 -141 30 -224 5 l-75 -22 -30 21 c-42 29 -52 26 -52
-14z m337 -56 c30 -15 52 -35 71 -67 23 -41 27 -58 27 -127 0 -69 -4 -86 -27
-127 -33 -56 -92 -88 -161 -88 -50 0 -113 25 -122 48 -10 26 4 27 50 4 76 -37
89 -25 59 52 -7 18 -3 18 59 12 81 -9 85 0 26 60 l-42 42 52 26 c28 15 51 30
51 35 0 13 -27 21 -70 21 -63 0 -72 7 -55 40 8 16 15 31 15 35 0 9 -45 6 -79
-6 -63 -22 -78 15 -18 45 45 22 113 20 164 -5z m-221 -126 c34 6 34 6 18 -19
-16 -23 -15 -24 17 -38 23 -10 29 -16 19 -19 -52 -17 -51 -16 -40 -36 15 -29
13 -31 -19 -25 -22 5 -32 1 -50 -21 l-21 -28 0 37 c0 34 -2 36 -32 36 l-31 0
21 23 c27 29 27 35 0 64 l-22 23 31 -6 c28 -5 32 -3 43 28 l12 33 10 -29 c9
-25 14 -28 44 -23z"/>
<path d="M3345 3339 c-24 -30 -26 -36 -19 -100 5 -55 3 -74 -10 -94 -21 -31
-41 -32 -61 -1 -15 22 -14 30 1 90 17 62 17 66 0 85 -10 11 -34 26 -54 32 -61
20 -282 -4 -282 -30 0 -5 31 -18 68 -30 42 -12 83 -33 107 -54 44 -38 43 -38
-38 -52 -45 -7 -87 -25 -87 -36 0 -4 24 -15 53 -25 114 -37 166 -79 152 -124
-15 -47 -74 -45 -139 5 -48 37 -58 33 -51 -19 9 -60 0 -83 -47 -112 -62 -39
-40 -48 127 -52 168 -5 266 12 337 57 102 65 134 155 105 295 -22 107 -21 125
4 152 l20 21 -45 12 c-78 19 -111 15 -141 -20z"/>
<path d="M783 3353 c-21 -8 -15 -20 17 -32 48 -16 37 -39 -30 -69 -55 -25 -72
-43 -52 -56 5 -3 33 -1 63 3 87 14 97 2 49 -59 -16 -21 -30 -45 -30 -54 0 -21
34 -21 51 0 7 8 26 22 41 30 41 21 54 7 62 -67 9 -80 33 -78 57 5 26 86 32 88
87 28 71 -76 90 -66 56 29 -10 26 -14 54 -10 64 6 17 26 17 104 -2 43 -10 24
30 -31 67 -58 39 -64 58 -27 77 44 22 30 38 -37 41 -56 3 -64 0 -96 -28 -44
-38 -75 -38 -112 0 -26 27 -35 30 -89 29 -34 0 -67 -3 -73 -6z"/>
<path d="M1410 2920 c0 -43 157 -260 189 -260 17 0 42 46 43 81 1 27 -7 41
-48 78 -88 79 -184 132 -184 101z"/>
<path d="M535 2778 c-33 -20 -44 -41 -45 -86 0 -37 6 -50 33 -77 32 -32 88
-55 133 -55 51 0 42 150 -11 200 -27 25 -83 35 -110 18z"/>
<path d="M3285 2770 c-27 -10 -71 -19 -97 -19 l-46 -1 11 -37 c16 -55 25 -63
74 -63 78 0 163 50 163 96 0 21 -26 45 -47 43 -4 0 -30 -9 -58 -19z"/>
<path d="M3426 2761 c14 -67 -85 -148 -184 -150 -50 -1 -72 -17 -72 -51 0 -37
23 -50 92 -50 156 0 298 170 213 255 -34 35 -56 33 -49 -4z"/>
<path d="M2333 2750 c-17 -10 -37 -28 -42 -39 -14 -25 -14 -111 -1 -111 6 0
10 6 10 14 0 22 49 56 81 56 48 0 59 -8 47 -35 -9 -21 -6 -28 32 -64 l43 -40
27 29 c28 30 50 95 50 151 0 28 -3 31 -25 26 -15 -2 -42 4 -63 14 -48 25 -118
24 -159 -1z"/>
<path d="M2800 2744 c-19 -9 -62 -19 -95 -22 -70 -8 -76 -19 -50 -90 22 -56
76 -116 129 -145 60 -32 212 -31 274 1 56 30 67 59 48 126 -18 60 -50 114 -71
123 -9 3 -36 -2 -61 -12 l-46 -17 -27 26 c-31 30 -51 32 -101 10z"/>
<path d="M1153 2709 c-18 -5 -48 -26 -67 -45 -51 -52 -63 -101 -18 -73 11 7
27 9 37 5 28 -10 15 -111 -19 -144 -33 -33 -53 -23 -67 33 -21 83 -64 49 -57
-45 4 -51 9 -66 35 -91 70 -71 210 -54 306 37 16 14 30 24 31 23 2 -2 11 -28
21 -57 33 -101 115 -152 189 -117 20 10 41 30 50 50 22 45 20 53 -8 48 -18 -4
-26 0 -31 16 -12 38 13 136 30 119 4 -3 9 -25 12 -48 4 -30 10 -40 21 -38 21
4 35 63 28 113 -20 131 -138 163 -237 64 l-39 -39 0 29 c0 40 -19 92 -44 119
-44 49 -99 62 -173 41z"/>
<path d="M402 2693 c-19 -7 -42 -58 -42 -92 0 -17 11 -42 26 -60 22 -27 33
-31 73 -31 26 0 56 6 66 14 18 13 17 14 -12 30 -40 20 -69 61 -78 109 -7 37
-10 40 -33 30z"/>
<path d="M2580 2589 c0 -40 -32 -90 -71 -109 -43 -23 -121 -28 -101 -8 7 7 12
22 12 35 0 21 -5 23 -46 23 -30 0 -59 8 -80 20 l-33 21 -13 -23 c-7 -13 -13
-56 -13 -100 0 -62 4 -82 21 -104 27 -37 38 -39 52 -9 10 22 16 25 35 18 12
-4 52 -8 88 -8 55 1 73 5 106 27 22 14 48 43 58 64 18 39 24 113 11 152 -9 28
-26 29 -26 1z"/>
<path d="M3450 2550 c-45 -47 -96 -72 -172 -85 -24 -4 -38 -11 -38 -21 0 -67
174 -254 236 -254 33 0 45 48 51 220 5 132 4 147 -13 166 l-19 22 -45 -48z"/>
<path d="M540 2489 c-43 -17 -90 -59 -109 -97 -24 -47 -47 -160 -35 -171 5 -4
43 -13 85 -20 66 -10 83 -10 125 5 72 24 108 56 143 126 29 57 30 63 16 82 -9
12 -22 36 -30 54 l-15 32 -78 -1 c-42 0 -88 -5 -102 -10z"/>
<path d="M2770 2395 c0 -88 54 -217 117 -277 88 -85 227 -105 377 -53 l77 26
44 -21 c45 -22 77 -62 89 -113 9 -37 -10 -104 -41 -145 -24 -32 -25 -33 -45
-15 -18 16 -20 26 -14 83 3 36 8 82 12 102 9 51 -13 59 -63 22 -53 -38 -75
-70 -80 -118 -6 -51 17 -84 85 -123 26 -15 48 -27 49 -28 2 -1 -14 -32 -34
-70 l-37 -69 -9 29 c-21 70 -92 243 -113 277 -28 44 -66 66 -130 75 -45 6 -46
6 -35 -16 7 -12 38 -52 70 -89 94 -110 141 -178 162 -231 29 -78 22 -93 -13
-28 -32 59 -70 103 -169 192 -43 39 -60 64 -78 113 -22 59 -67 112 -94 112 -7
0 -12 -16 -13 -37 -1 -21 -5 -64 -9 -95 -12 -90 13 -116 149 -153 97 -27 184
-135 232 -287 10 -32 20 -58 23 -58 3 1 20 24 36 53 38 66 77 84 106 48 10
-13 19 -37 19 -54 l0 -30 26 24 c54 50 89 162 65 208 -21 39 -66 28 -121 -29
-27 -27 -51 -50 -54 -50 -15 0 24 71 85 158 38 53 74 115 80 137 28 103 -15
202 -118 270 -36 23 -75 60 -94 89 -52 76 -124 143 -174 162 -37 14 -66 16
-158 11 -82 -4 -123 -1 -152 9 -53 18 -55 18 -55 -11z m262 -145 c19 0 29 21
21 49 -7 27 14 28 22 1 10 -32 55 -80 75 -80 12 0 21 10 25 30 7 33 25 32 25
-2 0 -11 15 -35 34 -54 l34 -34 -42 0 c-32 0 -50 -7 -79 -31 -41 -34 -49 -27
-16 15 23 29 19 56 -8 56 -10 0 -44 -14 -76 -31 -62 -33 -85 -32 -49 1 24 23
29 49 10 51 -7 1 -40 0 -73 -1 -63 -2 -69 7 -13 19 34 7 40 23 23 66 -5 13 5
8 31 -17 22 -21 47 -38 56 -38z"/>
<path d="M2580 2307 c-58 -29 -62 -100 -8 -140 75 -56 169 46 106 117 -28 31
-65 40 -98 23z"/>
<path d="M782 2282 c-73 -104 -39 -242 59 -242 51 0 67 8 84 41 40 76 1 166
-92 213 -31 16 -32 15 -51 -12z"/>
<path d="M1265 2276 c-15 -11 -20 -30 -23 -85 l-4 -71 -39 54 c-92 128 -209
131 -209 4 0 -40 3 -49 12 -40 22 22 82 14 131 -19 26 -17 47 -34 47 -38 0 -4
-26 -4 -57 0 -133 18 -203 -36 -203 -157 l0 -48 36 43 c20 23 54 51 75 62 40
20 124 40 133 32 2 -3 -2 -20 -10 -38 -8 -19 -14 -45 -14 -59 0 -13 -7 -32
-16 -40 -14 -15 -14 -21 1 -73 9 -31 14 -70 11 -87 -4 -22 1 -43 19 -75 14
-23 25 -54 25 -67 0 -15 19 -43 51 -76 49 -51 51 -52 77 -37 15 8 28 22 30 31
3 15 -31 75 -63 111 -8 9 -18 39 -21 65 -4 26 -13 52 -22 59 -12 10 -13 25 -8
73 5 40 3 66 -4 75 -8 10 -4 26 16 66 l28 52 33 -38 c36 -41 49 -87 40 -141
-7 -40 -4 -41 48 -11 50 28 85 80 85 124 0 42 -43 90 -89 99 -47 10 -37 22 25
30 73 9 126 -7 158 -48 l25 -32 10 28 c55 142 -81 206 -246 116 -49 -26 -52
-26 -41 -6 19 38 41 56 65 56 20 0 23 4 18 23 -8 26 -79 97 -98 97 -7 0 -22
-6 -32 -14z"/>
<path d="M2450 2183 c-52 -20 -69 -94 -30 -133 21 -21 69 -26 100 -10 39 21
45 97 8 127 -17 15 -59 23 -78 16z"/>
<path d="M2261 2074 c-24 -30 -26 -43 -10 -78 34 -73 139 -44 139 38 0 63 -89
90 -129 40z"/>
<path d="M353 2036 c13 -93 53 -122 130 -92 24 9 58 29 77 46 l35 29 -81 -6
-81 -6 -43 39 -43 39 6 -49z"/>
<path d="M680 1919 c-12 -29 -33 -86 -46 -128 -43 -129 -64 -126 -40 6 20 111
20 142 0 150 -31 12 -54 -30 -75 -132 -11 -55 -24 -104 -29 -109 -18 -18 -25
6 -23 84 2 62 -1 79 -13 84 -22 8 -51 -47 -65 -124 -7 -38 -10 -119 -7 -191 6
-179 43 -245 105 -187 52 48 64 98 39 159 -14 34 -8 70 13 84 17 10 91 -76 91
-107 0 -16 -22 -59 -56 -109 -114 -166 -143 -270 -110 -399 22 -86 47 -121
131 -185 69 -53 70 -54 82 -32 7 12 12 45 13 74 0 51 -1 53 -80 138 -79 85
-80 87 -80 138 0 29 5 59 10 67 7 12 13 11 34 -9 16 -15 42 -25 71 -29 l46 -5
-26 39 c-42 61 -33 100 68 310 91 191 130 302 125 356 -2 27 -7 33 -27 33 -21
0 -29 -11 -56 -80 -38 -96 -87 -178 -93 -153 -2 9 13 67 32 127 20 61 36 126
36 146 0 30 -3 35 -24 35 -19 0 -28 -10 -46 -51z"/>
<path d="M2549 1931 c-36 -37 -38 -79 -5 -118 19 -22 32 -28 66 -28 34 0 47 6
66 28 76 89 -44 200 -127 118z"/>
<path d="M1537 1888 c6 -59 9 -55 -131 -171 -49 -40 -57 -68 -34 -110 13 -25
25 -36 93 -81 28 -18 56 -40 64 -49 23 -29 -16 -34 -65 -8 -23 13 -47 20 -53
16 -46 -28 -66 -165 -35 -231 45 -95 203 -168 289 -135 17 7 14 10 -18 20 -45
15 -77 60 -77 109 0 19 18 67 46 119 54 102 53 116 -12 185 -24 26 -44 53 -44
60 0 8 13 29 29 48 90 111 80 178 -41 269 -15 11 -16 8 -11 -41z"/>
<path d="M982 1874 c-45 -40 -71 -75 -98 -128 -32 -66 -36 -84 -43 -189 -5
-67 -14 -123 -21 -132 -14 -17 -46 -20 -55 -5 -14 23 -35 9 -35 -23 0 -42 26
-67 67 -67 79 0 93 31 102 211 4 76 10 141 14 145 4 4 7 -11 7 -33 0 -23 9
-69 20 -104 34 -111 43 -165 30 -188 -12 -23 -46 -28 -52 -9 -7 20 -28 -2 -28
-28 0 -33 42 -74 75 -74 16 0 38 12 56 29 40 41 38 84 -11 235 -30 90 -40 139
-40 186 0 35 2 61 5 58 3 -3 12 -32 20 -64 19 -72 67 -174 128 -273 58 -93 74
-136 56 -157 -17 -21 -51 -14 -65 14 -10 21 -11 21 -27 4 -41 -45 -3 -128 63
-138 48 -8 86 9 110 48 39 65 24 113 -90 283 -140 209 -167 311 -115 438 13
30 -10 18 -73 -39z"/>
<path d="M2261 1878 c-49 -108 -33 -174 56 -226 62 -36 93 -66 93 -92 0 -34
-27 -35 -65 -1 -38 33 -75 40 -94 17 -7 -8 -10 -43 -9 -85 1 -60 -2 -76 -21
-102 -13 -17 -20 -33 -17 -36 3 -3 27 0 53 8 35 9 63 28 101 66 71 71 90 71
56 -1 -22 -44 -12 -81 26 -101 37 -19 74 -19 94 1 22 21 20 32 -13 83 -17 25
-28 48 -25 53 3 4 26 8 51 8 39 0 44 -2 38 -17 -4 -10 -8 -27 -9 -38 -1 -18 4
-20 44 -17 68 6 144 34 148 55 5 23 -36 67 -97 108 -57 37 -71 37 -71 -1 0
-18 -6 -33 -15 -36 -24 -10 -64 5 -75 27 -17 31 8 60 76 88 65 27 94 47 94 68
0 7 -9 13 -20 13 -12 0 -38 9 -60 20 -44 22 -100 26 -118 8 -7 -7 -12 -38 -12
-71 0 -42 -3 -58 -12 -55 -8 3 -15 33 -18 84 -3 43 -9 85 -13 92 -5 7 -35 26
-67 42 -41 21 -61 37 -68 57 l-10 28 -21 -47z"/>
<path d="M2750 1680 c0 -36 -3 -40 -24 -40 -29 0 -56 -9 -56 -20 0 -4 26 -23
58 -43 110 -68 132 -113 83 -170 -32 -36 -80 -60 -144 -72 -61 -12 -57 -26 15
-49 17 -5 17 -7 1 -41 -21 -43 -11 -54 27 -31 36 21 46 16 55 -25 11 -50 29
-27 42 54 13 88 43 140 77 135 15 -2 24 -14 31 -42 8 -32 5 -51 -18 -115 -15
-42 -27 -80 -27 -84 0 -14 24 -6 48 16 l24 22 31 -38 c18 -20 35 -37 39 -37 4
0 8 24 10 53 3 51 4 52 36 55 17 2 32 7 32 12 0 5 -22 23 -48 41 -56 36 -92
84 -92 122 0 64 105 1 140 -84 18 -43 40 -37 40 11 l0 40 45 0 c54 0 57 10 10
36 -41 22 -42 26 -14 66 12 16 18 32 15 35 -3 4 -37 -3 -74 -15 -94 -31 -142
-28 -142 8 0 26 23 41 92 59 72 19 85 37 34 47 -20 3 -36 8 -36 10 0 2 8 19
17 39 24 51 9 58 -44 19 -20 -15 -23 -14 -44 10 -38 44 -46 34 -45 -59 1 -69
-2 -87 -17 -102 -18 -17 -19 -17 -39 7 -15 19 -18 33 -14 60 25 139 18 164
-32 118 l-24 -23 -22 28 c-31 39 -46 35 -46 -13z"/>
<path d="M3300 1380 c-24 -24 -34 -62 -26 -94 5 -22 4 -23 -37 -19 -53 6 -93
-22 -103 -72 -9 -47 15 -81 74 -107 76 -33 110 -64 123 -111 l11 -42 34 39
c113 131 131 339 35 413 -25 20 -88 16 -111 -7z"/>
<path d="M1652 1323 c-37 -72 -28 -104 43 -153 86 -59 45 -105 -95 -105 -93 0
-142 18 -189 69 -14 14 -30 26 -37 26 -37 0 -45 -100 -13 -170 32 -72 65 -106
130 -139 139 -69 312 -23 373 98 31 62 40 119 26 172 -15 54 -39 82 -99 110
-61 28 -80 46 -101 94 l-17 40 -21 -42z"/>
<path d="M2214 1301 c-99 -24 -199 -107 -243 -201 -23 -48 -26 -68 -26 -155 0
-81 4 -109 22 -147 30 -66 105 -143 172 -175 49 -24 68 -27 151 -27 75 -1 104
4 141 21 98 44 172 140 188 245 7 43 6 48 -8 42 -85 -35 -218 -47 -297 -25
-22 6 -61 24 -85 41 -24 16 -49 30 -55 30 -13 0 -24 -23 -24 -51 0 -12 -7 -19
-19 -19 -28 0 -34 -16 -19 -46 28 -58 129 -81 218 -49 62 22 71 20 60 -11 -13
-34 -13 -34 10 -34 34 0 22 -30 -17 -47 -50 -20 -154 -13 -209 15 -88 45 -135
132 -115 209 14 50 44 76 114 99 29 9 58 21 65 27 17 13 15 42 -3 57 -24 20 0
30 71 30 65 0 89 14 82 47 -2 10 -17 24 -33 32 l-30 15 40 11 c119 34 -24 96
-151 66z"/>
<path d="M2455 1263 c17 -42 16 -57 -5 -120 -41 -123 -7 -198 91 -198 45 0 54
4 80 33 55 61 34 182 -43 247 -58 49 -138 73 -123 38z"/>
<path d="M746 1231 c-9 -10 -20 -35 -23 -55 -4 -27 -13 -41 -33 -51 -49 -25
-56 -90 -14 -132 21 -21 32 -25 63 -20 30 4 40 1 50 -15 18 -29 58 -40 98 -27
38 12 53 34 53 78 0 21 6 32 20 36 27 9 60 53 60 81 0 12 -12 37 -27 54 -23
28 -31 32 -64 27 -30 -4 -42 0 -60 19 -29 31 -97 34 -123 5z"/>
<path d="M2693 1113 c0 -21 -4 -61 -8 -89 -7 -47 -5 -52 20 -72 39 -31 80 -28
116 7 53 53 31 134 -46 171 -63 31 -80 27 -82 -17z"/>
<path d="M1080 1073 c-28 -15 -35 -24 -35 -48 0 -28 4 -31 76 -56 124 -42 155
-75 174 -186 14 -88 92 -153 183 -153 63 0 82 13 82 58 0 73 -70 142 -145 142
-57 0 -72 14 -94 86 -34 113 -78 159 -163 170 -30 4 -53 0 -78 -13z"/>
<path d="M2280 1069 c0 -4 5 -11 10 -14 7 -4 8 -24 5 -50 -10 -61 6 -85 55
-85 97 0 73 131 -28 150 -23 4 -42 4 -42 -1z"/>
<path d="M2965 1041 c-16 -10 -58 -48 -92 -84 -44 -46 -76 -70 -110 -82 -103
-37 -103 -37 -103 -61 0 -13 5 -35 12 -49 24 -53 99 -20 227 100 56 53 72 64
77 51 9 -24 -18 -59 -93 -119 -122 -97 -127 -116 -45 -168 89 -56 151 -33 238
92 57 81 74 94 74 59 0 -56 -78 -149 -160 -192 -28 -14 -46 -31 -48 -44 -4
-25 33 -74 56 -74 28 0 127 86 177 153 79 104 90 131 90 224 0 74 -3 85 -30
124 -42 59 -102 89 -179 89 -42 0 -70 -6 -91 -19z"/>
<path d="M970 909 c-101 -30 -137 -132 -84 -238 34 -67 86 -103 157 -109 91
-7 140 30 140 107 0 73 -55 131 -123 131 -32 0 -54 -28 -44 -55 9 -22 57 -45
94 -45 27 0 30 -2 20 -19 -23 -44 -120 -30 -155 22 -24 37 -22 84 4 110 33 34
106 31 155 -7 95 -72 102 -234 12 -271 -77 -32 -171 -14 -238 45 -65 56 -90
121 -86 216 4 87 -6 93 -57 40 -68 -72 -69 -186 -3 -288 65 -103 174 -161 298
-160 104 0 164 32 202 106 30 58 22 201 -14 271 -58 112 -176 173 -278 144z"/>
<path d="M1800 825 c-8 -10 -10 -30 -6 -60 4 -25 5 -45 3 -45 -3 0 -18 7 -33
15 -60 31 -106 8 -143 -71 -38 -80 -59 -94 -141 -94 -64 0 -70 -2 -70 -21 0
-32 60 -86 111 -99 94 -26 233 17 287 87 20 28 27 48 28 85 0 54 7 66 28 49 8
-7 27 -11 43 -9 28 3 28 4 25 63 -4 62 -22 91 -51 80 -7 -3 -20 4 -28 15 -17
24 -36 26 -53 5z"/>
<path d="M2566 650 c-46 -14 -66 -39 -66 -81 0 -56 32 -74 130 -74 57 0 83 5
108 20 58 35 56 106 -3 131 -37 15 -123 17 -169 4z"/>
<path d="M1921 574 c-28 -78 -111 -144 -209 -164 -39 -9 -50 -16 -59 -40 -16
-43 -69 -66 -124 -54 -39 8 -44 13 -57 53 -14 43 -97 141 -119 141 -6 0 -13
-23 -15 -50 -8 -83 -61 -122 -165 -123 l-63 -1 32 -33 c43 -45 101 -71 173
-79 66 -7 85 -15 162 -67 98 -66 152 -81 293 -82 115 0 130 2 193 28 l68 29
26 -26 c33 -33 82 -42 156 -28 69 13 110 36 105 60 -3 14 -19 18 -93 22 -54 4
-102 12 -120 22 -33 18 -82 68 -108 111 -10 15 -24 27 -31 27 -8 0 -36 -18
-62 -40 -84 -69 -249 -102 -329 -65 -29 13 -28 13 35 14 118 2 216 40 305 117
58 51 78 54 101 17 45 -73 60 -91 89 -112 101 -69 171 -38 210 94 12 42 20 54
38 57 30 4 35 44 8 69 -12 11 -21 28 -21 39 0 11 -10 25 -22 31 -18 10 -24 8
-37 -8 -12 -14 -23 -17 -41 -12 -14 4 -60 7 -102 8 -44 1 -80 6 -84 12 -9 15
-95 69 -109 69 -6 0 -17 -16 -24 -36z"/>
<path d="M2759 493 c-76 -40 -161 -52 -235 -34 -43 11 -48 10 -70 -10 -39 -37
-74 -117 -74 -172 0 -40 5 -53 29 -78 27 -26 36 -29 98 -29 132 0 234 40 319
125 62 62 82 115 64 171 -10 30 -44 66 -60 63 -3 -1 -35 -17 -71 -36z"/>
</g>
</svg>
